<svg width="100" height="100" viewBox="0 0 100 100" fill="none" xmlns="http://www.w3.org/2000/svg">
<path d="M50 100C77.6142 100 100 77.6142 100 50C100 22.3858 77.6142 0 50 0C22.3858 0 0 22.3858 0 50C0 77.6142 22.3858 100 50 100Z" fill="#DFDDD3"/>
<path d="M36.429 28.6519C38.4364 28.6519 40.2438 28.8222 41.8956 29.1852C43.5401 29.5333 44.9475 30.1111 46.1327 30.9111C47.3031 31.7111 48.2142 32.7704 48.866 34.1111C49.5031 35.4296 49.8216 37.0815 49.8216 39.0296C49.8216 41.1407 49.3401 42.9037 48.3845 44.3111C47.4216 45.7185 45.9993 46.8741 44.1031 47.7704C46.6808 48.5111 48.5919 49.8148 49.8586 51.6741C51.1327 53.5407 51.7549 55.7778 51.7549 58.4C51.7549 60.5259 51.3475 62.3556 50.5327 63.8963C49.7105 65.4519 48.5919 66.7185 47.2142 67.6889C45.829 68.6741 44.229 69.3926 42.4438 69.8593C40.6808 70.3259 38.8438 70.563 36.9623 70.563H16.666V28.6519H36.429ZM35.2364 45.5852C36.8734 45.5852 38.229 45.2 39.2956 44.4074C40.3549 43.6296 40.8734 42.3556 40.8734 40.5926C40.8734 39.6148 40.7031 38.8148 40.3623 38.1852C40.0068 37.5556 39.5327 37.0667 38.9401 36.7259C38.3475 36.3704 37.6808 36.1259 36.9105 35.9926C36.1475 35.8444 35.3549 35.7852 34.5401 35.7852H25.8956V45.5778H35.2364V45.5852ZM35.7475 63.4296C36.6586 63.4296 37.5253 63.3481 38.3327 63.163C39.1549 62.9852 39.8882 62.6963 40.5105 62.2741C41.1253 61.8667 41.6364 61.3111 42.0068 60.6C42.3771 59.8963 42.5549 58.9852 42.5549 57.8815C42.5549 55.7185 41.9475 54.1852 40.7401 53.2519C39.5327 52.3333 37.9179 51.8741 35.9253 51.8741H25.8956V63.4148H35.7475V63.4296Z" fill="#342525"/>
<path d="M64.9257 63.2889C66.1702 64.5112 67.9776 65.1186 70.3183 65.1186C71.9998 65.1186 73.4516 64.6963 74.6739 63.8445C75.8813 63 76.6146 62.0963 76.9035 61.1556H84.2442C83.0665 64.8074 81.2739 67.4149 78.8294 68.9852C76.4146 70.563 73.4739 71.3482 70.0442 71.3482C67.6516 71.3482 65.5035 70.963 63.5702 70.2C61.6368 69.4297 60.0294 68.3482 58.6665 66.9408C57.3405 65.526 56.3183 63.8519 55.585 61.8815C54.8591 59.926 54.4961 57.7556 54.4961 55.4149C54.4961 53.1482 54.8739 51.0223 55.6146 49.0667C56.3702 47.1037 57.4146 45.4074 58.7924 43.9778C60.1702 42.5482 61.8072 41.4223 63.7109 40.5926C65.6146 39.7704 67.7183 39.3556 70.0442 39.3556C72.6146 39.3556 74.8591 39.8519 76.7924 40.8593C78.7109 41.8519 80.2887 43.2 81.5257 44.8815C82.7628 46.563 83.6442 48.4815 84.1924 50.6445C84.7405 52.7926 84.9257 55.0445 84.7702 57.4H62.8591C62.8591 59.7926 63.6739 62.0667 64.9257 63.2889ZM74.5035 47.3408C73.5109 46.2445 71.8368 45.6519 69.785 45.6519C68.4516 45.6519 67.3479 45.8741 66.4665 46.3334C65.6072 46.7852 64.8961 47.3482 64.3554 48.0074C63.8146 48.6815 63.4517 49.3852 63.2368 50.1482C63.022 50.8815 62.8961 51.5556 62.8591 52.1482H76.422C76.222 50.0149 75.4961 48.4445 74.5035 47.3408Z" fill="#342525"/>
<path d="M78.1469 31.4592H61.1543V35.6H78.1469V31.4592Z" fill="#342525"/>
</svg>
