<svg width="101" height="100" viewBox="0 0 101 100" fill="none" xmlns="http://www.w3.org/2000/svg">
<path d="M50.5 100C78.3904 100 101 77.6142 101 50C101 22.3858 78.3904 0 50.5 0C22.6096 0 0 22.3858 0 50C0 77.6142 22.6096 100 50.5 100Z" fill="#342525"/>
<path d="M75.0843 29.6889C74.8897 29.1333 74.6578 28.9777 74.2987 28.8444C73.5131 28.5481 72.1814 28.9926 72.1814 28.9926C72.1814 28.9926 24.9808 45.7851 22.2874 47.6518C21.7039 48.0518 21.5094 48.2814 21.4196 48.5555C20.9557 49.8814 22.4071 50.4666 22.4071 50.4666L34.572 54.3926C34.572 54.3926 35.0284 54.4592 35.1855 54.3555C37.9537 52.6222 63.0316 36.9481 64.4755 36.4222C64.7074 36.3555 64.872 36.4296 64.8271 36.5851C64.2511 38.6 42.4725 57.7629 42.4725 57.7629C42.4725 57.7629 42.3902 57.8666 42.3378 57.9851L42.3079 57.9703L41.1707 69.9185C41.1707 69.9185 40.6919 73.5777 44.3952 69.9185C47.0063 67.3333 49.5275 65.1777 50.7919 64.1259C54.974 66.9851 59.4779 70.1481 61.4156 71.8C62.3882 72.6296 63.2111 72.7629 63.877 72.7407C65.7174 72.674 66.2337 70.6666 66.2337 70.6666C66.2337 70.6666 74.8374 36.3926 75.1217 31.8C75.1516 31.3481 75.189 31.0666 75.189 30.7555C75.1965 30.3259 75.1516 29.8889 75.0843 29.6889Z" fill="#E9E7E0"/>
</svg>
