<svg width="101" height="100" viewBox="0 0 101 100" fill="none" xmlns="http://www.w3.org/2000/svg">
<path d="M50.5 100C78.3904 100 101 77.6142 101 50C101 22.3858 78.3904 0 50.5 0C22.6096 0 0 22.3858 0 50C0 77.6142 22.6096 100 50.5 100Z" fill="#DFDDD3"/>
<path d="M50.4994 24.1926C58.9909 24.1926 59.9934 24.2223 63.3451 24.3778C66.4425 24.5186 68.1258 25.0297 69.248 25.4593C70.7293 26.0297 71.7917 26.7111 72.9065 27.8149C74.0212 28.9186 74.7095 29.963 75.2856 31.4371C75.7195 32.5482 76.2357 34.2149 76.3779 37.2815C76.5275 40.6 76.5649 41.6 76.5649 50C76.5649 58.4 76.535 59.4 76.3779 62.7186C76.2357 65.7852 75.7195 67.4519 75.2856 68.563C74.7095 70.0297 74.0212 71.0815 72.9065 72.1852C71.7917 73.2889 70.7368 73.9704 69.248 74.5408C68.1258 74.9704 66.4425 75.4815 63.3451 75.6223C59.9934 75.7704 58.9909 75.8074 50.4994 75.8074C42.0079 75.8074 41.0054 75.7778 37.6537 75.6223C34.5564 75.4815 32.8731 74.9704 31.7508 74.5408C30.2695 73.9704 29.2071 73.2889 28.0924 72.1852C26.9776 71.0815 26.2893 70.0371 25.7133 68.563C25.2793 67.4519 24.7631 65.7852 24.621 62.7186C24.4713 59.4 24.4339 58.4 24.4339 50C24.4339 41.6 24.4639 40.6 24.621 37.2815C24.7631 34.2149 25.2793 32.5482 25.7133 31.4371C26.2893 29.9704 26.9776 28.9186 28.0924 27.8149C29.2071 26.7111 30.262 26.0297 31.7508 25.4593C32.8731 25.0297 34.5564 24.5186 37.6537 24.3778C41.0054 24.2223 42.0079 24.1926 50.4994 24.1926ZM50.4994 18.5186C41.8658 18.5186 40.781 18.5556 37.3919 18.7111C34.0102 18.8667 31.6985 19.3926 29.671 20.1778C27.5836 20.9852 25.8105 22.0593 24.0374 23.8074C22.2718 25.5556 21.1795 27.3111 20.3715 29.3852C19.5859 31.3852 19.0473 33.6741 18.8902 37.0297C18.7405 40.3778 18.7031 41.4519 18.7031 50C18.7031 58.5482 18.7405 59.6223 18.8976 62.9778C19.0548 66.326 19.5859 68.6149 20.379 70.6223C21.1945 72.6889 22.2793 74.4445 24.0449 76.2C25.8105 77.9482 27.5836 79.0297 29.6785 79.8297C31.6985 80.6074 34.0102 81.1408 37.3993 81.2963C40.7885 81.4519 41.8733 81.4889 50.5069 81.4889C59.1405 81.4889 60.2253 81.4519 63.6145 81.2963C66.9961 81.1408 69.3079 80.6149 71.3353 79.8297C73.4227 79.0223 75.1958 77.9482 76.9689 76.2C78.7345 74.4519 79.8268 72.6963 80.6348 70.6223C81.4204 68.6223 81.9591 66.3334 82.1162 62.9778C82.2733 59.6223 82.3107 58.5482 82.3107 50C82.3107 41.4519 82.2733 40.3778 82.1162 37.0223C81.9591 33.6741 81.4279 31.3852 80.6348 29.3778C79.8194 27.3111 78.7345 25.5556 76.9689 23.8C75.2033 22.0519 73.4302 20.9704 71.3353 20.1704C69.3153 19.3926 67.0036 18.8593 63.6145 18.7037C60.2179 18.5556 59.1331 18.5186 50.4994 18.5186Z" fill="#342525"/>
<path d="M50.5004 33.837C41.4852 33.837 34.1758 41.0741 34.1758 50C34.1758 58.9259 41.4852 66.163 50.5004 66.163C59.5156 66.163 66.825 58.9259 66.825 50C66.825 41.0741 59.5156 33.837 50.5004 33.837ZM50.5004 60.4963C44.6499 60.4963 39.8991 55.8 39.8991 50C39.8991 44.2 44.6424 39.5037 50.5004 39.5037C56.3584 39.5037 61.1016 44.2 61.1016 50C61.1016 55.8 56.3509 60.4963 50.5004 60.4963Z" fill="#342525"/>
<path d="M67.4757 36.9705C69.583 36.9705 71.2913 35.2791 71.2913 33.1927C71.2913 31.1063 69.583 29.4149 67.4757 29.4149C65.3684 29.4149 63.6602 31.1063 63.6602 33.1927C63.6602 35.2791 65.3684 36.9705 67.4757 36.9705Z" fill="#342525"/>
</svg>
